<?xml version="1.0" standalone="no"?>
<!DOCTYPE svg PUBLIC "-//W3C//DTD SVG 20010904//EN"
 "http://www.w3.org/TR/2001/REC-SVG-20010904/DTD/svg10.dtd">
<svg version="1.0" xmlns="http://www.w3.org/2000/svg"
 width="200px" height="200px" viewBox="0 0 1200.000000 572.000000"
 preserveAspectRatio="xMidYMid meet">

<g transform="translate(0.000000,572.000000) scale(0.100000,-0.100000)"
fill="#000000" stroke="none">
<path d="M2456 5229 c-108 -26 -248 -95 -323 -157 -65 -54 -133 -143 -176
-228 -98 -194 -77 -453 54 -670 19 -31 79 -105 134 -166 191 -209 195 -215
189 -232 -6 -15 -90 -16 -935 -16 l-929 0 0 -405 0 -405 1188 2 1187 3 65 23
c245 89 405 262 464 505 24 96 23 269 -3 368 -40 157 -93 235 -328 485 -68 73
-123 139 -123 148 0 15 50 16 540 16 l540 0 0 -775 0 -775 410 0 410 0 0 775
0 775 495 0 495 0 0 375 0 375 -1637 -1 c-1588 0 -1640 -1 -1717 -20z"/>
<path d="M6161 5188 c-44 -135 -671 -2218 -671 -2229 0 -5 186 -9 424 -9 l424
0 11 33 c5 17 28 92 51 165 l41 132 392 -2 392 -3 53 -162 53 -163 414 0 c383
0 415 1 415 17 0 9 -144 480 -319 1047 -176 567 -332 1072 -347 1121 -15 50
-32 96 -37 103 -7 9 -148 12 -642 12 l-633 0 -21 -62z m778 -958 c50 -165 89
-305 86 -310 -8 -13 -362 -13 -369 -1 -7 10 176 611 185 611 3 0 47 -135 98
-300z"/>
<path d="M8320 4100 l0 -1150 455 0 455 0 0 320 c0 176 3 320 7 320 4 0 129
-121 278 -268 297 -295 319 -311 481 -352 75 -19 114 -20 807 -20 l727 0 0
405 0 404 -599 3 c-592 3 -600 3 -628 24 -15 12 -28 28 -28 36 0 9 41 43 91
76 168 113 271 255 310 428 25 115 16 313 -19 412 -80 229 -266 395 -534 479
l-88 28 -857 3 -858 3 0 -1151z m1465 481 c61 -28 78 -53 83 -121 5 -69 -9
-99 -61 -130 -30 -18 -52 -20 -299 -20 l-268 0 0 138 c0 76 3 142 7 145 3 4
117 7 252 7 217 0 251 -3 286 -19z"/>
<path d="M471 2758 c0 -7 159 -524 352 -1148 l352 -1135 387 -3 387 -2 37 117
c20 65 80 257 133 428 53 171 101 309 106 308 7 -1 149 -454 250 -801 l16 -52
391 2 391 3 349 1145 c191 630 348 1146 348 1148 0 1 -197 1 -437 0 l-438 -3
-77 -260 c-43 -143 -83 -277 -88 -297 -6 -21 -14 -38 -19 -38 -4 0 -50 135
-101 300 l-94 300 -477 0 -478 0 -17 -57 c-9 -32 -47 -165 -83 -295 -36 -131
-70 -238 -76 -238 -5 -1 -40 102 -77 227 -38 125 -77 258 -88 296 l-21 67
-464 0 c-366 0 -465 -3 -464 -12z"/>
<path d="M4351 2738 c-9 -29 -166 -550 -555 -1837 -69 -228 -123 -418 -120
-423 3 -4 194 -8 424 -8 l419 0 46 148 c25 81 49 155 51 164 5 17 33 18 399
18 l393 0 53 -165 52 -165 413 0 c227 0 415 4 418 8 3 5 -143 487 -325 1073
-181 585 -340 1098 -353 1139 l-23 75 -640 3 -641 2 -11 -32z m769 -981 c50
-164 89 -305 86 -313 -7 -19 -362 -21 -368 -2 -6 16 179 624 187 616 2 -1 44
-137 95 -301z"/>
<path d="M6542 1623 l3 -1148 453 -3 452 -2 0 320 c0 244 3 320 12 320 7 0
134 -121 283 -268 247 -246 276 -271 340 -300 158 -71 91 -67 1190 -67 796 0
1001 3 1045 13 30 8 98 34 150 59 81 39 108 58 181 133 97 97 154 197 185 325
26 103 24 277 -4 378 -43 153 -97 232 -326 477 -69 74 -125 142 -123 150 2 13
75 15 575 18 l572 2 0 370 0 370 -773 0 c-881 0 -842 3 -1027 -87 -128 -63
-235 -168 -298 -293 -56 -112 -72 -175 -72 -294 0 -123 19 -203 75 -321 53
-113 71 -137 234 -313 86 -93 131 -148 127 -158 -5 -13 -86 -14 -630 -12 -597
3 -625 4 -645 22 -12 11 -21 25 -21 32 0 7 40 40 89 74 167 114 272 256 312
420 20 81 17 299 -5 379 -70 255 -285 454 -570 526 l-99 25 -843 0 -844 0 2
-1147z m1477 479 c55 -27 76 -64 76 -132 0 -51 -4 -63 -29 -89 -48 -50 -61
-52 -341 -49 l-260 3 -3 129 c-1 72 0 136 2 143 4 10 61 13 263 13 226 0 262
-2 292 -18z"/>
</g>
</svg>
